<?xml version="1.0" standalone="no"?>
<!DOCTYPE svg PUBLIC "-//W3C//DTD SVG 20010904//EN"
 "http://www.w3.org/TR/2001/REC-SVG-20010904/DTD/svg10.dtd">
<svg version="1.0" xmlns="http://www.w3.org/2000/svg"
 width="225.000000pt" height="225.000000pt" viewBox="0 0 225.000000 225.000000"
 preserveAspectRatio="xMidYMid meet">

<g transform="translate(0.000000,225.000000) scale(0.100000,-0.100000)"
fill="#000000" stroke="none">
<path d="M953 1886 c-202 -39 -374 -124 -519 -258 -24 -22 -44 -47 -44 -55 0
-34 33 -22 107 41 298 250 696 304 1041 141 96 -46 203 -118 256 -174 32 -34
60 -40 70 -16 12 33 -174 179 -311 242 -170 79 -425 112 -600 79z"/>
<path d="M1043 1660 c-96 -10 -201 -43 -294 -91 -80 -42 -199 -140 -199 -165
0 -33 31 -25 82 21 71 64 172 122 265 152 106 35 291 43 396 18 100 -23 240
-93 320 -160 55 -47 70 -55 82 -45 21 17 5 42 -63 96 -115 91 -261 155 -388
169 -116 12 -130 13 -201 5z"/>
<path d="M1030 1423 c-42 -7 -123 -35 -171 -59 -61 -30 -149 -101 -149 -120 0
-31 31 -25 87 20 125 97 278 135 434 106 68 -13 181 -68 236 -114 44 -38 67
-45 76 -21 8 21 -79 95 -155 133 -106 52 -246 74 -358 55z"/>
<path d="M798 1118 c-9 -7 -75 -102 -147 -210 -89 -134 -131 -207 -131 -225 0
-16 -9 -41 -20 -58 -11 -16 -20 -40 -20 -53 0 -26 81 -192 103 -210 18 -15 67
-20 401 -37 193 -10 275 -10 292 -3 26 12 344 495 344 523 0 20 -92 203 -116
232 -18 21 -33 22 -309 37 -349 19 -377 20 -397 4z m397 -34 c309 -18 286 -16
280 -22 -3 -3 3 -11 12 -17 15 -11 5 -31 -102 -196 -65 -101 -122 -188 -127
-194 -5 -5 -14 -3 -25 7 -15 16 -8 29 99 195 120 185 138 215 121 198 -6 -5
-61 -89 -123 -185 -61 -96 -117 -180 -124 -186 -8 -8 -96 -7 -323 5 -171 9
-314 18 -317 21 -2 3 52 92 121 198 l125 192 62 0 c33 0 178 -7 321 -16z m355
-144 c22 -44 40 -84 40 -91 0 -19 -232 -370 -243 -366 -6 2 -28 37 -50 78
l-40 74 124 192 c68 106 125 193 126 193 2 0 21 -36 43 -80z m-983 -262 c-3
-8 -6 -5 -6 6 -1 11 2 17 5 13 3 -3 4 -12 1 -19z m203 3 c35 -7 20 -9 -72 -10
-73 -1 -118 3 -118 9 0 12 124 12 190 1z m399 -17 c17 -4 31 -10 31 -15 0 -8
-45 -3 -110 11 l-35 8 41 1 c23 1 56 -2 73 -5z m66 -14 c3 -5 -1 -10 -10 -10
-9 0 -13 5 -10 10 3 6 8 10 10 10 2 0 7 -4 10 -10z m-615 -5 c0 -18 -34 -53
-48 -50 -9 1 -11 0 -4 -2 6 -3 12 -18 12 -34 0 -24 -4 -29 -25 -29 -23 0 -25
4 -25 41 0 59 14 79 55 79 19 0 35 -2 35 -5z m240 -21 c47 -2 120 -4 163 -4
63 1 77 -2 77 -14 0 -12 -7 -14 -28 -10 -34 7 -63 -19 -43 -39 9 -9 14 -9 19
0 5 8 13 9 22 3 13 -8 13 -10 0 -14 -8 -3 -31 -7 -50 -9 -33 -4 -32 -4 8 -5
23 -1 42 -5 42 -9 0 -5 3 -18 6 -30 6 -22 4 -23 -59 -23 -46 0 -70 5 -81 16
-9 8 -16 11 -16 5 0 -7 -28 -11 -75 -11 l-74 0 -9 33 c-5 17 -5 34 0 35 4 2 8
13 8 25 -1 20 -2 20 -11 5 -8 -14 -25 -18 -77 -20 l-67 -1 64 -6 c60 -6 65 -8
72 -33 l7 -28 -74 0 c-72 0 -75 1 -85 27 -11 29 8 95 21 73 10 -16 54 -8 58
10 2 10 -6 16 -24 17 -17 0 -22 -2 -14 -7 7 -5 8 -10 2 -14 -15 -9 -22 20 -9
33 8 9 33 10 77 6 36 -3 103 -8 150 -11z m408 -32 l21 -38 -21 -33 -21 -33
-14 26 c-12 22 -11 30 2 57 13 24 14 34 4 45 -6 8 -7 14 -2 14 5 0 19 -17 31
-38z m-77 10 c-17 -32 -37 -42 -69 -36 -30 6 -31 7 -15 30 12 19 24 24 55 24
34 0 38 -2 29 -18z m49 2 c0 -10 -24 -54 -30 -54 -3 0 -11 5 -17 11 -16 16 13
60 33 52 8 -3 14 -7 14 -9z m-720 -41 c-1 -24 -2 -26 -11 -10 -5 9 -7 22 -4
27 10 17 15 11 15 -17z m540 17 c-20 -13 -33 -13 -25 0 3 6 14 10 23 10 15 0
15 -2 2 -10z m70 -50 c0 -25 -4 -30 -25 -30 -15 0 -25 6 -25 14 0 28 12 46 31
46 14 0 19 -7 19 -30z m66 18 c7 -11 -29 -48 -47 -48 -14 0 -11 48 4 53 21 9
36 7 43 -5z m141 -75 c12 -10 11 -16 -9 -47 -13 -20 -28 -34 -35 -31 -7 2 -10
-2 -6 -11 6 -16 -23 -43 -48 -44 -12 0 -66 88 -57 94 2 1 16 8 33 15 25 11 31
10 42 -5 15 -21 17 -11 4 15 -7 12 -4 26 11 50 l21 33 15 -28 c8 -16 21 -34
29 -41z m-102 -2 c-3 -5 -18 -14 -34 -19 -25 -9 -30 -7 -39 13 -10 21 -7 26
21 43 l32 19 13 -24 c7 -13 10 -27 7 -32z m-640 28 c9 -27 3 -32 -29 -20 -33
13 -35 41 -2 41 16 0 27 -7 31 -21z m580 -80 c20 -39 34 -73 32 -76 -3 -2
-131 3 -286 11 -155 9 -288 16 -295 16 -12 0 -71 89 -64 96 2 1 15 0 29 -3 19
-3 32 -16 44 -44 l18 -39 81 0 c85 0 121 10 94 26 -13 8 -38 45 -38 56 0 2 12
4 28 5 15 0 19 -1 10 -4 -21 -5 -21 -8 -8 -34 6 -10 20 -19 30 -19 11 0 20 -4
20 -10 0 -5 8 -11 18 -12 9 0 -3 -4 -28 -9 -31 -5 -13 -6 58 -4 57 2 102 -1
102 -6 0 -5 29 -9 65 -9 36 0 65 2 65 5 0 4 -7 20 -16 36 -8 17 -13 33 -10 37
3 3 -3 11 -14 19 -27 19 -25 33 4 33 20 0 31 -12 61 -71z m-525 31 c18 -43 7
-47 -13 -5 -9 19 -13 35 -8 35 5 0 14 -14 21 -30z m99 13 c-13 -3 -16 -13 -14
-39 2 -18 -1 -34 -6 -34 -6 0 -7 9 -4 21 5 15 4 19 -4 15 -6 -4 -11 -13 -11
-20 0 -8 -11 -13 -24 -13 -30 0 -24 24 7 29 11 2 22 9 25 17 3 8 0 11 -7 7 -6
-4 -9 -2 -6 6 3 8 18 14 33 15 15 0 20 -1 11 -4z m151 -33 c7 -16 15 -28 19
-26 3 2 15 0 26 -5 18 -7 17 -8 -7 -8 -15 -1 -30 4 -33 9 -4 6 -11 8 -16 5 -5
-3 -6 2 -2 11 4 12 3 15 -5 10 -8 -5 -10 -1 -5 10 5 13 3 15 -7 9 -9 -5 -11
-4 -6 3 12 19 23 14 36 -18z m88 23 c-21 -5 -21 -8 -8 -34 6 -10 20 -19 32
-19 12 0 19 -3 15 -6 -13 -13 -54 7 -65 31 -7 14 -12 27 -12 28 0 2 12 3 28 4
15 0 19 -1 10 -4z m71 -32 c9 -20 18 -27 31 -24 10 3 20 0 24 -5 6 -9 -64 -26
-73 -17 -2 3 3 5 13 5 9 0 14 5 11 10 -4 6 -11 8 -16 5 -5 -3 -6 2 -2 11 4 12
3 15 -5 10 -8 -5 -10 -1 -5 11 6 15 4 16 -8 6 -10 -8 -19 -9 -29 -1 -12 8 -12
9 3 4 11 -3 20 0 23 9 8 20 19 12 33 -24z m-124 9 c3 -6 -1 -7 -9 -4 -18 7
-21 14 -7 14 6 0 13 -4 16 -10z m-152 -27 c-7 -2 -19 -2 -25 0 -7 3 -2 5 12 5
14 0 19 -2 13 -5z"/>
<path d="M1107 1053 c-13 -12 -7 -23 13 -23 11 0 20 7 20 15 0 15 -21 21 -33
8z"/>
<path d="M710 605 c-10 -12 -10 -19 -1 -28 14 -14 44 2 49 27 4 21 -31 22 -48
1z m27 -2 c-9 -2 -14 -9 -11 -15 4 -7 2 -8 -5 -4 -15 10 -4 26 17 25 15 -1 15
-2 -1 -6z"/>
<path d="M777 613 c-9 -14 2 -43 16 -43 6 0 7 3 4 7 -4 3 -1 13 6 21 8 11 8
14 0 9 -6 -4 -13 -2 -15 5 -3 9 -6 9 -11 1z"/>
<path d="M820 591 c-7 -15 -7 -21 0 -21 12 0 25 28 17 36 -3 3 -10 -4 -17 -15z"/>
<path d="M898 603 c10 -4 10 -8 1 -19 -16 -20 -32 -17 -24 4 5 13 3 14 -6 5
-18 -18 0 -35 30 -28 17 4 23 3 16 -4 -5 -5 -37 -12 -70 -14 l-60 -3 62 -2
c49 -2 62 -5 66 -19 4 -17 5 -17 6 0 1 10 10 17 24 18 16 1 18 2 5 6 -20 5
-24 28 -8 38 6 4 9 1 8 -7 -2 -7 7 -14 19 -16 27 -4 51 33 27 42 -8 3 -12 2
-9 -4 3 -5 -4 -8 -15 -7 -11 1 -20 6 -20 12 0 5 -4 4 -9 -4 -6 -9 -11 -10 -15
-2 -4 6 -15 11 -24 10 -11 0 -13 -2 -4 -6z m76 -21 c3 -5 -1 -9 -9 -9 -8 0
-12 4 -9 9 3 4 7 8 9 8 2 0 6 -4 9 -8z"/>
</g>
</svg>
